<?xml version="1.0"?>
<svg width="350" height="137.9" xmlns="http://www.w3.org/2000/svg" xmlns:svg="http://www.w3.org/2000/svg" enable-background="new 0 0 350 137.9" version="1.1" xml:space="preserve">
 <style type="text/css">.st0{fill:#EC1E26;}</style>
 <title>Asset 28</title>
 <g class="layer">
  <title>Layer 1</title>
  <polygon fill="#ffffff" id="svg_1" points="0,52.6 0,53.8 9.5,53.8 9.5,53.8 28.9,53.8 28.9,128.1 9.5,128.1 9.5,53.9 0,63.3 0,137.6 38.4,137.6 38.4,44.4   0,44.4 "/>
  <polygon fill="#ffffff" id="svg_2" points="170.3,44.4 170.3,137.6 179.8,137.6 179.8,53.8 195.1,53.8 199.2,58 199.2,137.6 208.7,137.6 208.7,54.2   198.8,44.4 " transform="matrix(1 0 0 1 0 0)"/>
  <polygon fill="#ffffff" id="svg_3" points="85,53 85,137.6 123.4,137.6 123.4,65.2 113.9,74.6 113.9,128.1 94.5,128.1 94.5,58.3 98.9,53.8 123.7,53.8   123.7,44.4 93.6,44.4 " transform="matrix(1 0 0 1 0 0)"/>
  <path d="m156.8,128.1l-15.3,0l-4.4,-4.4l0,-39.3l29.1,-29.1l0,-10.9l-38.6,0l0,83.7l9.6,9.6l29,0l0,-72.5l-9.5,9.5l0.1,53.4zm-19.7,-74.3l17.2,0l-17.2,17.2l0,-17.2z" fill="#ffffff" id="svg_4" transform="matrix(1 0 0 1 0 0)"/>
  <path d="m241.8,128.1l-15.5,0l-4.2,-4.2l0,-39.5l29.1,-29.1l0,-10.9l-38.6,0l0,83.9l9.3,9.3l29.2,0l0,-72.4l-9.5,9.5l0.2,53.4zm-19.7,-74.3l17.2,0l-17.2,17.2l0,-17.2z" fill="#ffffff" id="svg_5" transform="matrix(1 0 0 1 0 0)"/>
  <path d="m71.6,128.1l-15.4,0l-4.4,-4.4l0,-39.3l29.2,-29.1l0,-10.9l-38.6,0l0,83.7l9.5,9.5l29.1,0l0,-72.4l-9.5,9.5l0.1,53.4zm-19.7,-74.3l17.2,0l-17.2,17.3l0,-17.3z" fill="#ffffff" id="svg_6" transform="matrix(1 0 0 1 0 0)"/>
  <polygon fill="#ffffff" id="svg_7" points="350,61.4 350,44.4 311.4,44.4 311.4,54.7 340.5,83.1 340.5,128.4 325.5,128.4 320.9,123.8 320.9,74.6 311.4,65.1   311.4,128.1 321.2,137.9 350,137.9 350,79.1 324,53.8 340.5,53.8 340.5,61.4 "/>
  <polygon fill="#ffffff" id="svg_8" points="255.3,54.7 284.4,83.1 284.4,128.4 269.4,128.4 264.8,123.8 264.8,74.6 255.3,65.1 255.3,128.1 265.1,137.9   293.8,137.9 293.8,79.1 267.9,53.8 284.4,53.8 284.4,61.4 293.8,61.4 293.8,44.4 255.3,44.4 " transform="matrix(1 0 0 1 0 0)"/>
  <polygon fill="#ffffff" id="svg_9" points="297.9,137.6 307.4,137.6 307.4,44.7 297.9,54.1 "/>
  <polygon class="st0" id="svg_10" points="311.1,18.6 319.8,27.3 325.2,27.3 312.7,14.8 306.6,14.8 306.6,23.5 301.7,23.5 301.7,21.3 301.7,21.3   301.7,18.6 303.7,18.6 303.7,14.8 301.7,14.8 301.7,7.6 297.9,11.4 297.9,14.8 293,14.8 293,14.1 301.7,5.4 301.7,0 289.2,12.5   289.2,18.6 297.9,18.6 297.9,23.5 295.7,23.5 295.7,23.5 293,23.5 293,21.5 289.2,21.5 289.2,23.5 282,23.5 285.8,27.3 289.2,27.3   289.2,32.2 288.5,32.2 279.8,23.5 274.4,23.5 286.9,36 293,36 293,27.3 297.9,27.3 297.9,29.5 297.9,29.5 297.9,32.1 295.9,32.1   295.9,36 297.9,36 297.9,43.1 301.7,39.3 301.7,36 306.6,36 306.6,36.7 297.9,45.4 297.9,50.8 310.4,38.3 310.4,32.1 301.7,32.1   301.7,27.3 303.9,27.3 303.9,27.3 306.6,27.3 306.6,29.3 310.4,29.3 310.4,27.3 317.6,27.3 313.8,23.5 310.4,23.5 310.4,18.6 "/>
 </g>
</svg>